<svg width="22" height="22" viewBox="0 0 22 22" fill="none" xmlns="http://www.w3.org/2000/svg">
<g clip-path="url(#clip0_337_386)">
<path d="M21.5979 19.6584L17.3398 15.3985C20.5259 11.1408 19.6572 5.10639 15.3994 1.92031C11.1417 -1.26577 5.10732 -0.397028 1.92124 3.86068C-1.26484 8.11839 -0.396097 14.1528 3.86161 17.3389C7.28176 19.8982 11.9793 19.8982 15.3994 17.3389L19.6593 21.5987C20.1946 22.1341 21.0625 22.1341 21.5978 21.5987C22.1331 21.0634 22.1331 20.1955 21.5978 19.6602L21.5979 19.6584ZM9.66603 16.5167C5.88198 16.5167 2.81443 13.4491 2.81443 9.6651C2.81443 5.88105 5.88198 2.8135 9.66603 2.8135C13.4501 2.8135 16.5176 5.88105 16.5176 9.6651C16.5136 13.4474 13.4484 16.5127 9.66603 16.5167Z" fill="#5C5C5C"/>
</g>
<defs>
<clipPath id="clip0_337_386">
<rect width="22" height="22" fill="white"/>
</clipPath>
</defs>
</svg>
