<svg width="28" height="28" viewBox="0 0 28 28" fill="none" xmlns="http://www.w3.org/2000/svg">
<g clip-path="url(#clip0_102_191)">
<path d="M22.1667 10.5H10.5C9.21136 10.5 8.16669 11.5447 8.16669 12.8333V19.8333C8.16669 21.122 9.21136 22.1667 10.5 22.1667H22.1667C23.4554 22.1667 24.5 21.122 24.5 19.8333V12.8333C24.5 11.5447 23.4554 10.5 22.1667 10.5Z" stroke="#5C5C5C" stroke-width="2.75" stroke-linecap="round" stroke-linejoin="round"/>
<path d="M16.3333 18.6667C17.622 18.6667 18.6667 17.622 18.6667 16.3333C18.6667 15.0447 17.622 14 16.3333 14C15.0447 14 14 15.0447 14 16.3333C14 17.622 15.0447 18.6667 16.3333 18.6667Z" stroke="#5C5C5C" stroke-width="2.75" stroke-linecap="round" stroke-linejoin="round"/>
<path d="M19.8333 10.5V8.16668C19.8333 7.54784 19.5875 6.95435 19.1499 6.51676C18.7123 6.07918 18.1188 5.83334 17.5 5.83334H5.83333C5.21449 5.83334 4.621 6.07918 4.18342 6.51676C3.74583 6.95435 3.5 7.54784 3.5 8.16668V15.1667C3.5 15.7855 3.74583 16.379 4.18342 16.8166C4.621 17.2542 5.21449 17.5 5.83333 17.5H8.16667" stroke="#5C5C5C" stroke-width="2.75" stroke-linecap="round" stroke-linejoin="round"/>
</g>
<defs>
<clipPath id="clip0_102_191">
<rect width="28" height="28" fill="white"/>
</clipPath>
</defs>
</svg>
